{"images":[{"uri":"New_Skin_color.png","name":"New_Skin_color.png"},{"uri":"New_Swimsuit.png","name":"New_Swimsuit.png"},{"uri":"Hair_.png","name":"Hair_.png"}],"accessors":[{"componentType":5123,"bufferView":0,"count":43746,"type":"SCALAR","byteOffset":0},{"componentType":5123,"bufferView":0,"count":39204,"type":"SCALAR","byteOffset":87492},{"componentType":5123,"bufferView":0,"count":420,"type":"SCALAR","byteOffset":165900},{"componentType":5123,"bufferView":0,"count":220995,"type":"SCALAR","byteOffset":166740},{"componentType":5123,"bufferView":0,"count":7224,"type":"SCALAR","byteOffset":608732},{"componentType":5126,"max":[0.007749780081212521,0.000048608300858177245,0.006256380118429661],"bufferView":1,"count":8521,"type":"VEC3","min":[-0.007749796845018864,-0.0458265021443367,-0.00333321001380682],"byteOffset":0},{"componentType":5126,"bufferView":1,"count":8521,"type":"VEC3","byteOffset":12},{"componentType":5126,"bufferView":1,"count":8521,"type":"VEC4","byteOffset":24},{"componentType":5126,"bufferView":1,"count":8521,"type":"VEC2","byteOffset":40},{"componentType":5126,"max":[0.00780843710526824,0.00010741000005509704,0.006316368002444506],"bufferView":2,"count":7611,"type":"VEC3","min":[-0.007808449678122997,-0.045886702835559845,-0.003392919898033142],"byteOffset":0},{"componentType":5126,"bufferView":2,"count":7611,"type":"VEC3","byteOffset":12},{"componentType":5126,"bufferView":2,"count":7611,"type":"VEC4","byteOffset":24},{"componentType":5126,"bufferView":2,"count":7611,"type":"VEC2","byteOffset":40},{"componentType":5126,"max":[0.0021334118209779263,-0.042450498789548874,-0.0010559028014540672],"bufferView":3,"count":88,"type":"VEC3","min":[-0.0020207699853926897,-0.042872197926044464,-0.0018965299241244793],"byteOffset":0},{"componentType":5126,"bufferView":3,"count":88,"type":"VEC3","byteOffset":12},{"componentType":5126,"bufferView":3,"count":88,"type":"VEC4","byteOffset":24},{"componentType":5126,"bufferView":3,"count":88,"type":"VEC2","byteOffset":40},{"componentType":5126,"max":[0.008145718835294247,-0.029089998453855515,0.007113254629075527],"bufferView":4,"count":38221,"type":"VEC3","min":[-0.008518659509718418,-0.046519260853528976,-0.002459689974784851],"byteOffset":0},{"componentType":5126,"bufferView":4,"count":38221,"type":"VEC3","byteOffset":12},{"componentType":5126,"bufferView":4,"count":38221,"type":"VEC4","byteOffset":24},{"componentType":5126,"bufferView":4,"count":38221,"type":"VEC2","byteOffset":40},{"componentType":5126,"max":[0.004165981896221638,-0.023787299171090126,0.003968165256083012],"bufferView":5,"count":2950,"type":"VEC3","min":[-0.004166239872574806,-0.038197800517082214,-0.003491929965093732],"byteOffset":0},{"componentType":5126,"bufferView":5,"count":2950,"type":"VEC3","byteOffset":12},{"componentType":5126,"bufferView":5,"count":2950,"type":"VEC4","byteOffset":24},{"componentType":5126,"bufferView":5,"count":2950,"type":"VEC2","byteOffset":40}],"textures":[{"source":0,"sampler":0},{"source":1,"sampler":0},{"source":2,"sampler":0}],"buffers":[{"byteLength":3377948,"uri":"buffer.bin"}],"bufferViews":[{"byteLength":623180,"target":34963,"byteOffset":0,"buffer":0},{"byteLength":409008,"byteStride":48,"target":34962,"byteOffset":623180,"buffer":0},{"byteLength":365328,"byteStride":48,"target":34962,"byteOffset":1032188,"buffer":0},{"byteLength":4224,"byteStride":48,"target":34962,"byteOffset":1397516,"buffer":0},{"byteLength":1834608,"byteStride":48,"target":34962,"byteOffset":1401740,"buffer":0},{"byteLength":141600,"byteStride":48,"target":34962,"byteOffset":3236348,"buffer":0}],"samplers":[{"magFilter":9729,"minFilter":9987}],"scene":0,"nodes":[{"children":[1],"name":"RootNode","translation":[0.018647033721208572,0.01074104002340229,0.18106768868776046]},{"rotation":[-0.707106828689575,0,0,0.707106709480286],"children":[2],"name":"Haruka - Bikini Girl"},{"children":[3],"name":"RootNode"},{"rotation":[-0.70710688829422,0,0,0.707106709480286],"scale":[100,99.9999847412109,99.9999847412109],"children":[4,5,6,7,8],"name":"Girl"},{"name":"Girl_Skin_0","mesh":0},{"name":"Girl_Outline-black_0","mesh":1},{"name":"Girl_hair outline_0","mesh":2},{"name":"Girl_Hair_0","mesh":3},{"name":"Girl_sWIMSUIT_0","mesh":4}],"materials":[{"pbrMetallicRoughness":{"baseColorFactor":[1,1,1,1],"baseColorTexture":{"index":0},"metallicFactor":0},"extensions":{"KHR_materials_specular":{"specularFactor":0.3}},"name":"Skin"},{"pbrMetallicRoughness":{"baseColorFactor":[0.0016869153167892836,0.0016869153167892836,0.0016869153167892836,1],"metallicFactor":0.400000005960464},"extensions":{"KHR_materials_specular":{"specularFactor":0.3}},"name":"Outline-black"},{"pbrMetallicRoughness":{"baseColorFactor":[0.002932318323938363,0.002932318323938363,0.002932318323938363,1],"metallicFactor":0.400000005960464},"extensions":{"KHR_materials_specular":{"specularFactor":0.3}},"name":"hair outline"},{"pbrMetallicRoughness":{"baseColorFactor":[1,1,1,1],"baseColorTexture":{"index":2},"metallicFactor":0},"extensions":{"KHR_materials_specular":{"specularFactor":0.3}},"name":"Hair"},{"pbrMetallicRoughness":{"baseColorFactor":[1,1,1,1],"baseColorTexture":{"index":1},"metallicFactor":0},"extensions":{"KHR_materials_specular":{"specularFactor":0.3}},"name":"sWIMSUIT"}],"scenes":[{"nodes":[0],"name":"Root Scene"}],"asset":{"generator":"CG美术之家","source":"https://www.cgmszj.com/model/103824.html","version":"2.0"},"meshes":[{"primitives":[{"mode":4,"indices":0,"material":0,"attributes":{"COLOR_0":7,"POSITION":5,"TEXCOORD_0":8,"NORMAL":6}}],"name":"Girl_Skin_0"},{"primitives":[{"mode":4,"indices":1,"material":1,"attributes":{"COLOR_0":11,"POSITION":9,"TEXCOORD_0":12,"NORMAL":10}}],"name":"Girl_Outline-black_0"},{"primitives":[{"mode":4,"indices":2,"material":2,"attributes":{"COLOR_0":15,"POSITION":13,"TEXCOORD_0":16,"NORMAL":14}}],"name":"Girl_hair outline_0"},{"primitives":[{"mode":4,"indices":3,"material":3,"attributes":{"COLOR_0":19,"POSITION":17,"TEXCOORD_0":20,"NORMAL":18}}],"name":"Girl_Hair_0"},{"primitives":[{"mode":4,"indices":4,"material":4,"attributes":{"COLOR_0":23,"POSITION":21,"TEXCOORD_0":24,"NORMAL":22}}],"name":"Girl_sWIMSUIT_0"}]}